<svg xmlns="http://www.w3.org/2000/svg" viewBox="0 0 64 64" role="img" aria-label="lab86-mail">
  <defs>
    <linearGradient id="bg" x1="8" y1="6" x2="56" y2="58" gradientUnits="userSpaceOnUse">
      <stop stop-color="#2563eb"/>
      <stop offset="0.55" stop-color="#0f766e"/>
      <stop offset="1" stop-color="#111827"/>
    </linearGradient>
    <linearGradient id="flap" x1="14" y1="20" x2="50" y2="44" gradientUnits="userSpaceOnUse">
      <stop stop-color="#ffffff"/>
      <stop offset="1" stop-color="#dbeafe"/>
    </linearGradient>
  </defs>
  <rect width="64" height="64" rx="14" fill="url(#bg)"/>
  <path d="M14 22.5c0-2 1.6-3.5 3.5-3.5h29c1.9 0 3.5 1.5 3.5 3.5v19c0 2-1.6 3.5-3.5 3.5h-29c-1.9 0-3.5-1.5-3.5-3.5v-19Z" fill="#f8fafc"/>
  <path d="M16 22.5 32 34l16-11.5v4.7L33.8 37.3a3 3 0 0 1-3.6 0L16 27.2v-4.7Z" fill="url(#flap)"/>
  <path d="M14 42.5 27.6 32l2.6 1.9a3 3 0 0 0 3.6 0l2.6-1.9L50 42.5c-.4 1.5-1.8 2.5-3.5 2.5h-29c-1.7 0-3.1-1-3.5-2.5Z" fill="#e0f2fe"/>
  <circle cx="47" cy="17" r="7" fill="#22c55e"/>
  <path d="M43.8 17.1h6.4M47 13.9v6.4" stroke="#f8fafc" stroke-width="2.4" stroke-linecap="round"/>
</svg>
